<svg xmlns="http://www.w3.org/2000/svg" viewBox="0 0 32 32" width="32" height="32">
  <defs>
    <linearGradient id="fg" x1="0%" y1="0%" x2="100%" y2="100%">
      <stop offset="0%" stop-color="#6366f1"/>
      <stop offset="50%" stop-color="#8b5cf6"/>
      <stop offset="100%" stop-color="#06b6d4"/>
    </linearGradient>
  </defs>
  <rect width="32" height="32" rx="6" fill="#0a0a0f"/>

  <!-- H -->
  <line x1="5" y1="7" x2="5" y2="25" stroke="url(#fg)" stroke-width="2" stroke-linecap="round"/>
  <line x1="14" y1="7" x2="14" y2="25" stroke="url(#fg)" stroke-width="2" stroke-linecap="round"/>
  <path d="M5,15.5 L8,15.5 L8,14 L11,14 L11,15.5 L14,15.5" stroke="url(#fg)" stroke-width="1.8" fill="none" stroke-linecap="round" stroke-linejoin="round"/>
  <!-- H pads -->
  <circle cx="5" cy="7" r="2.5" fill="#0a0a0f" stroke="url(#fg)" stroke-width="1.5"/>
  <circle cx="5" cy="25" r="2.5" fill="#0a0a0f" stroke="url(#fg)" stroke-width="1.5"/>
  <circle cx="14" cy="7" r="2.5" fill="#0a0a0f" stroke="url(#fg)" stroke-width="1.5"/>
  <circle cx="14" cy="25" r="2.5" fill="#0a0a0f" stroke="url(#fg)" stroke-width="1.5"/>
  <circle cx="5" cy="15.5" r="2" fill="url(#fg)"/>
  <circle cx="14" cy="15.5" r="2" fill="url(#fg)"/>

  <!-- P -->
  <line x1="20" y1="7" x2="20" y2="25" stroke="url(#fg)" stroke-width="2" stroke-linecap="round"/>
  <path d="M20,8.5 L23,8.5 C28,8.5 28.5,13 27,15 C25.5,17 22.5,17 21,17 L20,17" stroke="url(#fg)" stroke-width="1.8" fill="none" stroke-linecap="round" stroke-linejoin="round"/>
  <!-- P pads -->
  <circle cx="20" cy="7" r="2.5" fill="#0a0a0f" stroke="url(#fg)" stroke-width="1.5"/>
  <circle cx="20" cy="25" r="2.5" fill="#0a0a0f" stroke="url(#fg)" stroke-width="1.5"/>
  <circle cx="20" cy="17" r="2" fill="url(#fg)"/>
  <circle cx="27.5" cy="12" r="1.8" fill="url(#fg)"/>
</svg>
